# xmcd
#
# Track frame offsets: 
#        150
#        1022
#        15650
#        25940
#        37762
#        52143
#        69338
#        83746
#        92175
#        104830
#        119232
#        129449
#        145747
#        154891
#
# Disc length: 2166 seconds
#
# Revision: 0
# Processed by: cddbd v1.5.2PL0 Copyright (c) Steve Scherf et al.
# Submitted via: ExactAudioCopy v0.99pb5
#
DISCID=b608740e
DTITLE=The Cheatin' Hearts - Two Demos And Then Some
DYEAR=2007
DGENRE=Outlaw Country
TTITLE0=Heinekin
TTITLE1=Stumblin' Drunk
TTITLE2=Tonight I'm Gonna Get Drunk
TTITLE3=Kentucky Dry
TTITLE4=Drinkin' In A Bar
TTITLE5=Cheatin' Heart Boogie
TTITLE6=That Woman Got Me Drinkin'
TTITLE7=Mean Hangover Blues
TTITLE8=Georgia On A Fast Train
TTITLE9=Cocaine Blues
TTITLE10=Tonight I'm Gonna Get Drunk
TTITLE11=Stumblin' Drunk
TTITLE12=I Sold My Soul
TTITLE13=Merle Speaketh
EXTD=
EXTT0=
EXTT1=
EXTT2=
EXTT3=
EXTT4=
EXTT5=
EXTT6=
EXTT7=
EXTT8=
EXTT9=
EXTT10=
EXTT11=
EXTT12=
EXTT13=
PLAYORDER=
